<?xml version="1.0" standalone="no"?>
<!DOCTYPE svg PUBLIC "-//W3C//DTD SVG 20010904//EN"
 "http://www.w3.org/TR/2001/REC-SVG-20010904/DTD/svg10.dtd">
<svg version="1.0" xmlns="http://www.w3.org/2000/svg"
 width="2492.000000pt" height="2492.000000pt" viewBox="0 0 2492.000000 2492.000000"
 preserveAspectRatio="xMidYMid meet">
<metadata>
Created by potrace 1.14, written by Peter Selinger 2001-2017
</metadata>
<g transform="translate(0.000000,2492.000000) scale(0.100000,-0.100000)"
fill="#000000" stroke="none">
<path d="M1555 24859 c4 -35 415 -5060 915 -11167 499 -6106 910 -11105 913
-11109 9 -9 9138 -2574 9162 -2575 18 0 8894 2567 8900 2574 9 10 1932 22284
1924 22288 -5 3 -4352 14 -9661 23 -5309 9 -10217 20 -10906 23 l-1253 7 6
-64z m17765 -4493 c0 -3 -56 -607 -125 -1344 -69 -736 -125 -1348 -125 -1360
l0 -22 -5285 0 -5286 0 6 -32 c3 -18 66 -652 140 -1408 75 -756 138 -1385 141
-1397 l4 -23 5011 0 5012 0 -7 -57 c-3 -32 -175 -1939 -382 -4238 -207 -2299
-379 -4183 -382 -4187 -5 -5 -5104 -1420 -5587 -1551 l-90 -24 -2815 786
c-2502 699 -2815 788 -2818 806 -1 11 -83 963 -182 2115 -99 1152 -182 2121
-186 2153 l-6 57 1371 0 c754 0 1371 -1 1372 -2 0 -2 37 -479 83 -1060 45
-582 84 -1059 87 -1062 2 -2 699 -206 1548 -452 l1544 -447 81 20 c192 48
2952 794 2966 802 11 6 52 370 200 1782 l186 1774 -4771 5 -4770 5 -3 30 c-43
437 -759 8322 -755 8327 4 8 13823 11 13823 4z"/>
</g>
</svg>
